<svg width="53" height="48" viewBox="0 0 53 48" fill="none" xmlns="http://www.w3.org/2000/svg">
<g id="Group 2">
<g id="Group 1">
<g id="Group">
<path id="Vector" fill-rule="evenodd" clip-rule="evenodd" d="M34.6408 23.1354C32.4934 22.598 30.3492 22.9265 28.3931 24.5511L28.0644 24.8241C22.8647 29.1424 13.4994 40.0511 13.4994 40.0511C11.6823 42.1815 8.58393 42.5146 7.10817 40.7376C5.63271 38.961 6.52908 35.9765 8.95695 34.5815C8.95695 34.5815 21.3999 27.3787 26.5997 23.0603L26.9283 22.7874C28.8845 21.1628 29.6011 19.1154 29.4673 16.9059C29.3294 14.6368 30.6275 11.9085 32.7847 10.1169C35.6627 7.72676 41.6948 3.66549 43.8093 2.2577C44.238 1.97186 44.7812 2.0258 45.0762 2.38098C45.3977 2.76806 45.3075 3.37342 44.875 3.73268L35.3647 11.6309C34.8891 12.0259 34.8008 12.686 35.2144 13.0214C35.5391 13.2847 36.0816 13.2029 36.4719 12.8788L45.9403 5.01542C46.3728 4.65615 46.9842 4.67835 47.3059 5.06579L47.3158 5.07762C47.6372 5.46469 47.5471 6.07006 47.1145 6.42932L37.6042 14.3275C37.1716 14.6868 37.0595 15.265 37.3536 15.6191C37.648 15.9735 38.2369 15.9695 38.6695 15.6102L48.1798 7.71205C48.6124 7.35279 49.2237 7.37499 49.5455 7.76243L49.5553 7.77425C49.8768 8.16133 49.7866 8.7667 49.354 9.12596L39.8437 17.0242C39.3681 17.4191 39.2799 18.0793 39.6935 18.4147C40.0181 18.678 40.5607 18.5962 40.951 18.2721L50.4193 10.4087C50.8519 10.0494 51.4632 10.0716 51.785 10.4591C52.08 10.8142 52.0332 11.3581 51.6735 11.7271C49.9011 13.5467 44.8015 18.7309 41.9235 21.121C39.7663 22.9126 36.8457 23.6872 34.6408 23.1354Z" fill="black"/>
</g>
<path id="Vector_2" d="M17.3596 5.42372C13.7826 2.44447 8.4412 2.88913 5.46195 6.4662C5.46195 6.4662 5.42376 6.51206 5.38556 6.55792C2.45218 10.1732 2.93503 15.4687 6.51211 18.4479C14.9503 25.4759 20.8025 20.8741 24.7465 24.1589C24.7465 24.1589 42.1816 41.0879 42.3191 41.2025C43.6032 42.272 45.4983 42.1416 46.6136 40.8957L46.6518 40.8498L46.69 40.804C47.7136 39.4817 47.4992 37.5943 46.2151 36.5248C46.0775 36.4102 26.2743 22.3245 26.2743 22.3245C22.3304 19.0397 25.7978 12.4517 17.3596 5.42372Z" fill="black"/>
</g>
<circle id="Ellipse 1" cx="26.5808" cy="38.1795" r="4.34957" fill="black"/>
</g>
</svg>
